<?xml version="1.0" standalone="no"?>
<!DOCTYPE svg PUBLIC "-//W3C//DTD SVG 20010904//EN"
 "http://www.w3.org/TR/2001/REC-SVG-20010904/DTD/svg10.dtd">
<svg version="1.0" xmlns="http://www.w3.org/2000/svg"
 width="705.000000pt" height="941.000000pt" viewBox="0 0 705.000000 941.000000"
 preserveAspectRatio="xMidYMid meet">
<metadata>
Created by potrace 1.15, written by Peter Selinger 2001-2017
</metadata>
<g transform="translate(0.000000,941.000000) scale(0.100000,-0.100000)"
fill="#000000" stroke="none">
<path d="M4207 9396 c-31 -7 -63 -18 -69 -24 -7 -7 -29 -12 -49 -12 -20 0 -42
-7 -49 -15 -9 -11 -25 -14 -64 -9 -57 6 -94 -9 -112 -43 -6 -13 -28 -36 -50
-53 -21 -16 -43 -34 -49 -40 -38 -40 -63 -59 -122 -90 -60 -31 -74 -44 -121
-115 -115 -172 -140 -241 -143 -400 -5 -184 18 -308 69 -385 14 -21 17 -52 17
-185 1 -156 9 -212 26 -169 4 10 8 51 8 90 1 73 25 267 38 300 4 11 13 26 21
34 10 10 11 15 3 18 -6 2 -11 10 -11 18 0 18 52 147 63 155 4 3 12 34 18 68 7
44 18 74 39 100 16 20 32 55 36 78 4 29 12 44 25 48 20 7 23 14 19 54 -1 15 2
21 9 16 6 -3 14 1 17 9 4 9 18 16 34 16 15 0 30 7 33 15 6 15 126 75 151 75 8
0 38 9 66 20 28 11 63 20 78 20 16 0 33 5 38 10 7 7 16 4 29 -10 23 -25 83
-27 132 -3 33 15 38 15 90 -2 30 -10 60 -27 67 -37 7 -10 28 -25 47 -33 19 -9
49 -24 67 -35 18 -11 35 -19 39 -17 4 1 10 -12 15 -28 4 -17 17 -40 28 -52 11
-12 20 -29 20 -37 0 -18 66 -158 79 -165 14 -9 21 -60 35 -261 3 -44 -12 -80
-30 -73 -9 3 -14 -2 -14 -15 0 -11 6 -23 13 -25 6 -3 3 -6 -8 -6 -11 -1 -31 6
-43 15 -12 8 -50 21 -84 28 -35 8 -76 19 -91 25 -34 13 -97 14 -117 1 -24 -15
1 -32 61 -41 99 -16 190 -50 228 -85 27 -26 42 -33 63 -30 21 3 29 -1 38 -23
24 -58 20 -104 -16 -206 -20 -55 -37 -120 -39 -145 -2 -25 -9 -58 -16 -75 -6
-16 -13 -43 -13 -58 -1 -15 -6 -31 -12 -35 -6 -4 -10 -17 -9 -29 1 -13 -2 -23
-7 -23 -4 0 -6 -10 -5 -22 2 -12 -3 -34 -11 -50 -7 -16 -15 -36 -16 -44 -1 -9
-7 -19 -12 -22 -5 -4 -18 -24 -29 -44 -60 -112 -258 -293 -273 -250 -5 17 -26
15 -64 -7 -56 -33 -153 -61 -213 -61 -99 -1 -119 2 -146 15 -16 9 -33 13 -38
10 -5 -2 -20 1 -32 8 -27 14 -99 86 -99 99 0 4 -9 8 -20 8 -49 0 -4 -101 71
-160 80 -63 245 -110 318 -90 23 6 59 13 79 16 22 2 64 23 107 53 65 45 105
62 147 62 20 0 114 98 130 136 l12 28 4 -38 c4 -42 -29 -182 -54 -231 -9 -17
-31 -69 -49 -116 -18 -47 -46 -114 -63 -150 -55 -120 -74 -165 -107 -255 -18
-49 -50 -130 -69 -178 -20 -48 -36 -93 -36 -99 0 -14 -74 -226 -115 -328 -60
-150 -123 -324 -130 -358 -4 -18 -25 -78 -47 -135 -22 -56 -44 -113 -48 -127
-31 -95 -115 -320 -195 -520 -51 -129 -112 -284 -135 -345 -81 -215 -111 -291
-130 -335 -10 -25 -49 -119 -86 -210 -71 -173 -83 -196 -94 -183 -4 4 -15 46
-24 93 -45 236 -59 306 -82 435 -13 77 -36 199 -50 270 -14 72 -39 195 -55
275 -39 197 -64 378 -88 621 -24 242 -45 645 -35 685 3 16 28 96 55 178 27 81
46 152 43 157 -3 5 1 23 10 40 8 16 13 36 10 44 -5 13 12 30 31 30 6 0 39 57
75 126 66 127 116 203 165 249 15 14 45 57 67 95 22 39 55 86 73 105 17 19 43
55 57 80 14 25 35 54 47 64 21 19 30 76 12 76 -12 0 -127 -92 -216 -174 -62
-57 -88 -68 -266 -116 -101 -27 -276 -83 -389 -125 -113 -42 -220 -81 -239
-85 -48 -12 -110 -58 -143 -105 -15 -22 -43 -90 -63 -150 -67 -210 -89 -385
-65 -530 5 -33 13 -114 16 -180 l7 -120 -51 -156 c-67 -203 -82 -268 -82 -359
0 -65 -5 -87 -39 -165 -52 -122 -65 -180 -56 -263 6 -57 4 -72 -10 -85 -9 -10
-23 -17 -30 -17 -25 0 -73 -50 -80 -83 -4 -17 -21 -57 -37 -87 -17 -30 -39
-87 -49 -127 -10 -39 -31 -98 -47 -130 -16 -32 -37 -95 -46 -140 -9 -46 -26
-104 -38 -130 -15 -35 -23 -81 -28 -168 -5 -66 -13 -136 -19 -155 -6 -19 -16
-96 -21 -170 -13 -166 -24 -266 -50 -440 -14 -96 -20 -187 -20 -315 0 -99 -5
-265 -10 -369 -7 -119 -7 -193 -1 -199 5 -5 33 -15 63 -22 29 -6 63 -15 75
-19 19 -6 23 -2 29 29 9 51 47 91 102 109 75 24 203 48 254 47 61 -1 125 -27
134 -54 6 -20 7 -20 21 -1 15 20 13 122 -8 337 -8 90 -7 101 10 125 57 83 94
192 116 347 9 61 22 150 30 199 8 49 15 107 15 127 0 65 21 139 47 167 34 37
62 102 77 182 10 52 25 85 66 146 46 69 51 75 46 44 -4 -19 -13 -91 -21 -160
-7 -69 -23 -185 -34 -258 -11 -72 -24 -183 -27 -245 -4 -61 -11 -120 -15 -129
-5 -9 -18 -65 -30 -125 -11 -59 -40 -184 -64 -278 -53 -205 -95 -410 -95 -464
0 -36 -4 -42 -45 -68 -34 -21 -44 -33 -41 -48 13 -58 91 -243 112 -266 13 -14
24 -29 24 -33 0 -4 9 -20 19 -35 19 -26 26 -56 23 -93 -2 -23 -49 -45 -85 -40
-29 3 -102 67 -115 100 -4 10 -25 45 -47 79 -28 44 -46 62 -60 61 -11 0 -28 3
-37 7 -13 5 -20 0 -28 -20 -8 -22 -6 -33 10 -60 24 -39 25 -68 5 -172 -9 -43
-22 -126 -30 -184 -8 -58 -23 -139 -35 -180 -11 -40 -20 -98 -20 -129 0 -54
26 -130 49 -144 6 -4 11 -29 11 -56 0 -32 5 -50 14 -53 17 -7 27 14 19 42 -6
25 -7 25 47 6 80 -28 160 -15 250 40 19 12 66 38 105 59 59 32 73 36 93 26 13
-6 34 -8 45 -4 18 6 19 7 4 16 -26 14 -21 31 7 24 14 -3 36 -2 49 3 20 8 24
15 19 36 -5 30 13 48 40 39 13 -4 21 4 32 30 15 37 36 45 66 26 9 -5 19 -5 27
2 9 7 17 7 27 -1 15 -13 13 -14 56 38 23 28 27 88 6 93 -13 3 -13 6 -1 22 12
16 17 17 30 6 8 -7 15 -18 15 -26 0 -7 5 -16 10 -19 18 -11 38 14 35 42 -1 15
1 38 6 52 4 14 9 81 11 148 l4 123 -43 17 c-24 10 -43 20 -43 24 0 12 50 190
80 284 17 55 41 132 51 170 11 39 27 81 36 94 13 21 17 22 24 8 24 -42 53
-747 31 -747 -12 0 -42 34 -42 48 0 14 -49 52 -67 52 -12 0 -14 -18 -13 -92 4
-173 12 -259 27 -274 20 -19 6 -37 -23 -30 -13 4 -24 2 -24 -3 0 -18 32 -42
50 -36 9 3 23 -1 29 -9 18 -22 -4 -59 -30 -51 -13 4 -19 1 -20 -9 -3 -33 -4
-37 -18 -45 -14 -9 -7 -51 10 -51 5 0 9 -7 9 -15 0 -22 28 -18 41 6 9 17 13
19 20 8 5 -8 6 12 3 49 -6 53 -4 61 8 57 21 -8 31 21 17 47 -7 12 -8 41 -4 73
3 28 8 69 11 91 12 104 22 156 23 130 0 -16 7 -55 15 -85 26 -98 56 -221 56
-227 0 -2 -11 -9 -25 -14 -22 -8 -36 -32 -17 -29 51 7 95 -79 57 -111 -9 -7
-13 -20 -11 -29 4 -11 -5 -21 -27 -32 -25 -12 -32 -22 -32 -45 0 -24 -4 -29
-25 -29 -26 0 -40 -11 -40 -33 0 -9 7 -11 21 -7 19 6 20 3 17 -36 -2 -27 1
-44 10 -46 6 -3 12 2 12 10 0 8 9 17 20 20 11 3 18 1 15 -3 -3 -5 -1 -11 5
-15 6 -4 7 -12 3 -18 -4 -6 -8 -33 -10 -60 -2 -41 0 -48 15 -45 9 2 19 14 20
28 2 14 10 32 17 40 12 15 22 46 32 108 3 18 9 34 13 37 16 10 21 -79 10 -150
-6 -38 -11 -79 -11 -90 0 -11 -4 -33 -9 -50 -12 -38 -13 -64 -6 -148 4 -43 3
-67 -4 -67 -5 0 -10 8 -10 18 0 20 -26 79 -39 86 -4 3 -3 35 2 70 5 36 7 73 3
81 -8 22 -36 18 -36 -4 0 -11 -5 -23 -10 -26 -8 -5 -8 -11 0 -19 5 -7 14 -34
19 -59 7 -42 6 -46 -16 -58 -21 -11 -23 -18 -19 -57 5 -50 32 -85 58 -79 10 3
21 1 24 -4 3 -5 22 4 42 21 l37 30 2 98 c1 53 2 105 2 115 2 33 -2 52 -11 58
-5 3 1 17 12 31 11 15 20 31 20 37 0 6 4 11 9 11 13 0 42 -85 35 -104 -4 -10
1 -23 15 -35 11 -10 18 -21 14 -25 -3 -3 3 -6 14 -6 33 0 37 -29 8 -56 -14
-13 -25 -30 -25 -39 0 -9 -5 -13 -11 -10 -6 4 -8 13 -5 21 3 8 1 14 -4 14 -19
0 -20 -21 -3 -50 l18 -31 -33 -25 c-17 -14 -32 -31 -32 -38 0 -6 -9 -18 -20
-26 -11 -8 -20 -22 -20 -32 0 -18 9 -22 43 -19 19 2 21 -7 7 -29 -8 -12 -13
-13 -30 -2 -11 6 -28 12 -38 12 -10 0 -23 5 -30 12 -9 9 -12 8 -12 -5 0 -32
-44 -19 -91 26 -45 42 -46 43 -113 41 -73 -1 -97 -13 -77 -38 7 -8 14 -34 16
-57 3 -23 7 -50 10 -59 3 -9 -1 -23 -10 -30 -13 -10 -15 -9 -15 9 0 26 -11 27
-28 1 -7 -11 -21 -20 -33 -20 -15 0 -19 -5 -15 -18 7 -21 -32 -47 -90 -61 -26
-6 119 -9 419 -10 447 0 457 0 447 19 -6 10 -20 26 -32 35 -19 12 -21 18 -11
33 6 9 16 16 22 14 6 -1 11 2 11 8 0 5 -4 10 -10 10 -5 0 -7 7 -4 15 5 12 -3
15 -35 15 -30 0 -41 4 -41 15 0 17 9 19 29 6 25 -16 43 -1 36 28 -8 30 -21 41
-52 41 -13 0 -23 5 -23 11 0 7 -10 9 -25 5 -14 -4 -26 -3 -26 1 -8 52 -7 63 7
63 8 0 18 -8 22 -18 5 -13 8 -11 12 13 4 22 11 31 29 33 14 2 28 -3 33 -12 5
-8 14 -13 21 -10 6 2 23 -6 37 -19 27 -25 109 -44 232 -56 82 -7 148 8 253 58
33 16 80 38 104 50 25 12 55 21 68 21 13 0 23 5 23 11 0 6 11 25 24 42 39 53
87 156 121 262 18 55 43 117 55 138 18 30 20 41 10 47 -14 8 -50 2 -50 -10 0
-10 -208 -146 -253 -165 -20 -8 -56 -15 -81 -15 -53 0 -76 24 -76 79 0 28 8
42 43 73 23 21 78 70 122 110 79 71 374 288 391 288 5 0 26 12 47 26 21 14 54
32 73 40 l34 14 36 -77 c46 -101 149 -227 308 -378 69 -66 126 -125 126 -131
0 -6 -24 -37 -53 -70 l-54 -59 -7 -95 c-10 -124 -11 -132 -18 -150 -12 -29
-22 -75 -22 -104 -1 -16 -6 -31 -13 -33 -14 -5 -17 237 -4 285 14 47 -3 40
-49 -23 -23 -31 -60 -69 -83 -85 -23 -17 -51 -39 -63 -50 -11 -10 -40 -27 -65
-36 -24 -10 -47 -22 -50 -26 -3 -5 -10 -8 -15 -7 -5 2 -26 0 -46 -4 -28 -6
-38 -13 -38 -26 0 -27 26 -33 60 -16 16 8 38 15 48 15 11 0 30 8 43 19 13 10
34 21 47 25 12 4 22 12 22 17 0 5 7 9 15 9 13 0 13 -4 3 -22 -7 -13 -19 -28
-27 -34 -8 -6 -11 -16 -7 -22 12 -20 35 -13 42 13 4 15 13 25 25 25 10 0 24
10 30 23 7 12 16 25 20 28 5 3 10 18 11 33 2 16 9 31 18 34 8 3 18 10 22 16 8
12 9 8 12 -59 1 -33 -19 -91 -52 -144 -1 -3 -8 3 -15 12 -10 15 -12 12 -15
-24 -1 -23 -6 -49 -11 -58 -16 -30 -23 -91 -10 -91 7 0 9 -9 5 -25 -6 -24 -4
-25 38 -25 l44 0 7 43 c14 83 50 94 43 12 l-5 -55 87 0 88 0 10 42 c15 65 21
108 37 290 8 92 19 177 25 188 6 11 10 35 10 52 -1 55 11 100 25 94 8 -3 19 2
26 11 15 17 82 12 150 -11 29 -10 42 -11 54 -2 8 6 38 56 66 111 40 80 50 108
48 142 -3 43 13 73 38 73 7 0 16 -7 19 -15 10 -25 43 25 37 56 -6 30 18 59 48
59 17 0 18 3 9 21 -14 26 0 45 42 54 23 5 29 11 25 25 -5 21 26 60 48 60 8 0
15 8 15 18 0 11 30 82 66 158 100 208 253 590 305 760 5 17 33 80 63 140 134
273 179 405 237 704 17 85 37 187 46 225 24 113 28 318 9 505 -28 264 -54 426
-93 560 -19 69 -41 150 -48 180 -7 30 -24 99 -39 154 -14 54 -26 106 -26 116
0 10 -11 52 -25 94 -15 46 -29 121 -35 193 -6 65 -15 140 -20 166 -12 60 -75
212 -100 245 -11 13 -38 83 -60 155 -23 73 -51 148 -63 167 -18 30 -21 52 -23
165 -1 143 -13 201 -55 287 -32 64 -61 89 -140 123 -263 112 -658 310 -744
373 -69 51 -215 126 -295 151 -47 15 -71 33 -151 112 -55 54 -110 119 -128
152 -18 32 -44 71 -59 88 -21 25 -23 34 -14 48 7 9 20 32 30 51 9 19 20 37 23
40 4 3 26 50 49 105 24 55 49 107 55 115 7 8 15 27 18 41 7 29 32 60 62 77 11
6 14 12 8 12 -16 0 -18 157 -3 180 8 13 10 12 11 -5 1 -11 7 4 14 33 7 29 18
59 25 67 7 9 10 27 7 44 -5 22 4 49 34 109 48 97 69 192 75 340 4 103 -1 152
-21 207 -6 16 -3 15 14 -5 l21 -25 -6 65 c-5 56 -11 70 -40 100 -19 20 -34 41
-34 47 0 6 -16 30 -35 53 -20 24 -34 46 -32 49 48 88 69 174 45 184 -19 7 -44
-8 -29 -17 25 -16 4 -95 -33 -125 -13 -11 -20 -8 -45 20 -27 29 -30 38 -26 81
8 93 -2 115 -66 159 -32 21 -63 39 -68 39 -6 0 -22 18 -36 40 l-25 40 -193 -1
c-112 0 -216 -6 -250 -13z m210 -4173 c8 -16 8 -23 1 -23 -7 0 -9 -16 -5 -40
4 -32 -2 -58 -30 -123 -19 -45 -42 -100 -50 -122 -9 -22 -19 -42 -22 -45 -3
-3 -14 -23 -25 -45 -10 -22 -21 -34 -23 -27 -4 9 -9 10 -18 2 -20 -17 -39 68
-32 145 l6 65 -34 0 c-38 0 -54 27 -37 64 5 11 15 39 22 61 17 55 29 68 46 54
8 -6 14 -20 14 -30 0 -26 17 -32 23 -9 3 11 0 20 -6 20 -7 0 1 7 18 16 27 14
30 14 42 -2 11 -15 13 -15 27 -1 9 9 16 23 16 32 0 12 5 15 16 11 11 -4 15 -2
11 7 -9 23 29 14 40 -10z m-242 -430 c6 -18 15 -23 41 -23 19 0 34 -4 34 -9 0
-20 -77 -161 -84 -154 -4 4 -4 -1 0 -11 5 -13 4 -17 -4 -12 -7 4 -10 2 -7 -6
6 -15 -65 -139 -75 -133 -4 3 -16 -16 -26 -40 -10 -25 -22 -45 -26 -45 -4 0
-8 -6 -8 -14 0 -16 -27 -29 -41 -20 -5 3 -9 11 -9 18 0 8 -11 16 -25 18 -24 5
-25 4 -19 -31 4 -20 7 -43 7 -51 0 -8 5 -18 11 -22 7 -4 5 -15 -4 -33 -8 -15
-16 -22 -18 -16 -2 5 -10 7 -18 4 -8 -3 -14 1 -14 10 0 21 -41 61 -66 65 -28
5 -29 10 -11 30 10 10 17 26 17 35 0 9 5 17 11 17 5 0 8 -4 5 -9 -3 -5 1 -14
9 -21 16 -13 26 -1 23 30 -4 50 3 78 22 83 16 4 20 14 20 52 l0 47 37 -4 c22
-2 38 2 40 10 3 7 -5 12 -22 12 -23 0 -25 2 -16 14 7 8 26 18 44 22 17 3 40
17 50 30 10 13 22 22 27 19 5 -3 12 -1 15 5 5 8 11 7 21 -1 11 -9 18 -9 26 -1
17 17 31 15 24 -3 -8 -22 7 -18 22 6 12 18 11 24 -8 44 -18 19 -19 23 -6 28
21 8 9 37 -15 37 -20 0 -26 31 -12 67 7 17 7 17 14 -2 3 -11 9 -30 14 -42z
m1419 -860 c4 -16 12 -68 19 -118 8 -49 20 -101 27 -115 18 -35 101 -138 143
-178 l35 -34 -23 -56 c-12 -32 -41 -86 -64 -121 -41 -65 -77 -161 -88 -237 -6
-49 20 -160 47 -194 57 -72 58 -105 2 -134 -47 -25 -124 -109 -149 -163 -14
-29 -28 -53 -32 -53 -16 0 -32 178 -41 440 -5 146 -12 299 -15 340 -4 41 -2
93 3 115 5 22 26 101 45 175 19 74 43 186 52 248 17 112 28 136 39 85z m-2305
-802 c13 -9 17 -23 28 -111 6 -55 -6 -69 -64 -72 -48 -1 -58 4 -79 44 -31 60
10 148 69 148 18 0 38 -4 46 -9z m2242 -1816 c30 -30 60 -55 67 -55 6 0 12 -4
12 -10 0 -5 9 -10 20 -10 11 0 20 -4 20 -10 0 -5 17 -16 38 -25 92 -41 116
-65 63 -65 -32 0 -34 -4 -31 -52 2 -39 -21 -37 -122 10 -72 34 -201 119 -219
145 -7 10 21 67 34 67 4 0 7 5 7 12 0 16 30 48 45 48 7 0 36 -25 66 -55z"/>
<path d="M3720 8343 c-98 -35 -101 -37 -84 -61 15 -21 16 -21 47 -5 25 13 60
17 154 17 138 1 158 13 66 39 -88 24 -133 27 -183 10z"/>
<path d="M3591 6891 c-6 -10 -10 -81 -9 -158 2 -173 -5 -190 -132 -322 -49
-51 -90 -99 -90 -106 0 -6 9 -20 21 -31 21 -19 21 -18 105 69 55 58 87 100 94
125 15 52 34 208 33 267 -2 120 -5 175 -8 175 -3 0 -9 -8 -14 -19z"/>
<path d="M2950 598 c0 -8 -7 -21 -15 -28 -22 -18 -19 -51 5 -57 11 -3 20 -9
20 -13 0 -4 8 -10 18 -13 26 -6 34 -44 14 -64 -13 -12 -14 -17 -4 -21 7 -2 22
-13 33 -25 19 -20 34 -27 74 -30 17 -2 20 4 19 38 -1 44 -49 153 -76 173 -10
7 -18 19 -18 27 0 20 -19 29 -34 16 -9 -7 -16 -7 -24 1 -9 9 -12 8 -12 -4z"/>
</g>
</svg>
